<svg width="192" height="80" viewBox="0 0 192 80" fill="none" xmlns="http://www.w3.org/2000/svg">
<path d="M156.109 36.0919V19.7766C156.109 15.3088 158.13 12.9619 163.398 12.9619H166.315L177.98 20.8961V34.9724L166.315 42.9067H163.398C158.125 42.9067 156.109 40.5598 156.109 36.0919ZM161.717 55.8685H168.222L177.98 48.72V55.8685H192V0H177.98V7.14854L168.222 0H161.717C149.604 0 142.089 5.58737 142.089 20.3364V35.5322C142.089 50.2812 149.604 55.8685 161.717 55.8685ZM59.2149 55.8685H73.2352V22.4573L86.6936 13.2957C89.8326 13.2957 90.7295 14.636 90.7295 17.6557V55.8685H104.75V22.4573L118.208 13.2957C121.347 13.2957 122.244 14.636 122.244 17.6557V55.8685H136.264V18.1025C136.264 4.47297 129.873 0 118.883 0H116.863L103.631 9.7214C101.389 2.6807 95.6675 0 87.3688 0H85.3482L73.2352 8.82783V0H59.2149V55.8685ZM11.1028 80H26.1282L55.1789 0H40.2618L27.3652 36.8725L14.9171 0H0L19.85 55.9764L11.1028 80Z" fill="#1A1A1A"/>
</svg>
